<svg width="201" height="201" viewBox="0 0 201 201" fill="none" xmlns="http://www.w3.org/2000/svg">
<rect width="201" height="201" rx="25" fill="#FF0000"/>
<path d="M36.1023 103.818V93.5455C41.375 93.5455 45.0265 92.5 47.0568 90.4091C49.1174 88.3182 50.1477 85 50.1477 80.4545V71.8636C50.1477 65.7727 51.0417 60.9848 52.8295 57.5C54.6477 54.0152 57.1174 51.4545 60.2386 49.8182C63.3902 48.1818 67.0265 47.1515 71.1477 46.7273C75.2689 46.2727 79.6477 46.0454 84.2841 46.0454V62.3636C80.6477 62.3636 77.9205 62.803 76.1023 63.6818C74.3144 64.5606 73.1174 65.8939 72.5114 67.6818C71.9053 69.4697 71.6023 71.7273 71.6023 74.4545V86.0909C71.6023 88.3939 71.1326 90.6061 70.1932 92.7273C69.2538 94.8485 67.5265 96.7424 65.0114 98.4091C62.4962 100.076 58.9053 101.394 54.2386 102.364C49.6023 103.333 43.5568 103.818 36.1023 103.818ZM84.2841 160.636C79.6477 160.636 75.2689 160.409 71.1477 159.955C67.0265 159.53 63.3902 158.5 60.2386 156.864C57.1174 155.227 54.6477 152.667 52.8295 149.182C51.0417 145.697 50.1477 140.909 50.1477 134.818V126.273C50.1477 121.697 49.1174 118.379 47.0568 116.318C45.0265 114.227 41.375 113.182 36.1023 113.182V102.864C43.5568 102.864 49.6023 103.364 54.2386 104.364C58.9053 105.333 62.4962 106.652 65.0114 108.318C67.5265 109.955 69.2538 111.833 70.1932 113.955C71.1326 116.076 71.6023 118.288 71.6023 120.591V132.227C71.6023 134.955 71.9053 137.212 72.5114 139C73.1174 140.788 74.3144 142.121 76.1023 143C77.9205 143.879 80.6477 144.318 84.2841 144.318V160.636ZM36.1023 113.182V93.5455H54.2386V113.182H36.1023ZM164.886 102.864V113.182C159.644 113.182 155.992 114.227 153.932 116.318C151.871 118.379 150.841 121.697 150.841 126.273V134.818C150.841 140.909 149.932 145.697 148.114 149.182C146.326 152.667 143.856 155.227 140.705 156.864C137.583 158.5 133.962 159.53 129.841 159.955C125.75 160.409 121.371 160.636 116.705 160.636V144.318C120.341 144.318 123.053 143.879 124.841 143C126.659 142.121 127.871 140.788 128.477 139C129.083 137.212 129.386 134.955 129.386 132.227V120.591C129.386 118.288 129.856 116.076 130.795 113.955C131.735 111.833 133.462 109.955 135.977 108.318C138.492 106.652 142.068 105.333 146.705 104.364C151.371 103.364 157.432 102.864 164.886 102.864ZM116.705 46.0454C121.371 46.0454 125.75 46.2727 129.841 46.7273C133.962 47.1515 137.583 48.1818 140.705 49.8182C143.856 51.4545 146.326 54.0152 148.114 57.5C149.932 60.9848 150.841 65.7727 150.841 71.8636V80.4545C150.841 85 151.871 88.3182 153.932 90.4091C155.992 92.5 159.644 93.5455 164.886 93.5455V103.818C157.432 103.818 151.371 103.333 146.705 102.364C142.068 101.394 138.492 100.076 135.977 98.4091C133.462 96.7424 131.735 94.8485 130.795 92.7273C129.856 90.6061 129.386 88.3939 129.386 86.0909V74.4545C129.386 71.7273 129.083 69.4697 128.477 67.6818C127.871 65.8939 126.659 64.5606 124.841 63.6818C123.053 62.803 120.341 62.3636 116.705 62.3636V46.0454ZM164.886 93.5455V113.182H146.75V93.5455H164.886Z" fill="white"/>
</svg>
